<svg data-v-fde0c5aa="" xmlns="http://www.w3.org/2000/svg" viewBox="0 0 300 300" class="font"><!----><defs data-v-fde0c5aa=""><!----></defs><rect data-v-fde0c5aa="" fill="#DCD02D" x="0" y="0" width="300px" height="300px" class="logo-background-square"></rect><defs data-v-fde0c5aa=""><!----></defs><g data-v-fde0c5aa="" id="892e1e77-806f-4957-88a5-639317ac6d76" fill="#40347B" transform="matrix(4.597701296040448,0,0,4.597701296040448,33.563218295161114,110.89655049909953)"><path d="M7.91 10.88L7.91 10.88Q8.22 10.88 8.43 11.09L8.43 11.09L8.43 11.09Q8.64 11.30 8.64 11.61L8.64 11.61L8.64 11.61Q8.64 11.91 8.43 12.12L8.43 12.12L8.43 12.12Q8.22 12.33 7.91 12.33L7.91 12.33L2.11 12.33L2.11 12.33Q1.81 12.33 1.60 12.12L1.60 12.12L1.60 12.12Q1.40 11.91 1.40 11.61L1.40 11.61L1.40 2.13L1.40 2.13Q1.40 1.82 1.61 1.61L1.61 1.61L1.61 1.61Q1.82 1.40 2.11 1.40L2.11 1.40L2.11 1.40Q2.42 1.40 2.63 1.61L2.63 1.61L2.63 1.61Q2.84 1.82 2.84 2.13L2.84 2.13L2.84 10.88L7.91 10.88ZM10.39 5.39L10.39 5.39Q10.39 5.07 10.59 4.87L10.59 4.87L10.59 4.87Q10.79 4.68 11.10 4.68L11.10 4.68L11.10 4.68Q11.42 4.68 11.62 4.87L11.62 4.87L11.62 4.87Q11.82 5.07 11.82 5.39L11.82 5.39L11.82 11.62L11.82 11.62Q11.82 11.93 11.62 12.13L11.62 12.13L11.62 12.13Q11.42 12.33 11.10 12.33L11.10 12.33L11.10 12.33Q10.79 12.33 10.59 12.13L10.59 12.13L10.59 12.13Q10.39 11.93 10.39 11.62L10.39 11.62L10.39 5.39ZM11.10 1.58L11.10 1.58Q11.48 1.58 11.75 1.85L11.75 1.85L11.75 1.85Q12.03 2.13 12.03 2.51L12.03 2.51L12.03 2.51Q12.03 2.88 11.75 3.16L11.75 3.16L11.75 3.16Q11.48 3.43 11.10 3.43L11.10 3.43L11.10 3.43Q10.72 3.43 10.45 3.16L10.45 3.16L10.45 3.16Q10.18 2.88 10.18 2.51L10.18 2.51L10.18 2.51Q10.18 2.13 10.45 1.85L10.45 1.85L10.45 1.85Q10.72 1.58 11.10 1.58L11.10 1.58ZM18.28 4.61L18.28 4.61Q19.25 4.61 20.02 5.03L20.02 5.03L20.02 5.03Q20.79 5.45 21.22 6.25L21.22 6.25L21.22 6.25Q21.66 7.06 21.66 8.19L21.66 8.19L21.66 11.63L21.66 11.63Q21.66 11.94 21.45 12.14L21.45 12.14L21.45 12.14Q21.25 12.35 20.94 12.35L20.94 12.35L20.94 12.35Q20.64 12.35 20.43 12.14L20.43 12.14L20.43 12.14Q20.23 11.94 20.23 11.63L20.23 11.63L20.23 8.19L20.23 8.19Q20.23 7.06 19.62 6.47L19.62 6.47L19.62 6.47Q19.01 5.89 18.00 5.89L18.00 5.89L18.00 5.89Q17.42 5.89 16.93 6.13L16.93 6.13L16.93 6.13Q16.45 6.37 16.18 6.78L16.18 6.78L16.18 6.78Q15.90 7.18 15.90 7.69L15.90 7.69L15.90 11.63L15.90 11.63Q15.90 11.94 15.71 12.14L15.71 12.14L15.71 12.14Q15.51 12.35 15.19 12.35L15.19 12.35L15.19 12.35Q14.88 12.35 14.68 12.14L14.68 12.14L14.68 12.14Q14.48 11.94 14.48 11.63L14.48 11.63L14.48 5.39L14.48 5.39Q14.48 5.07 14.68 4.87L14.68 4.87L14.68 4.87Q14.88 4.68 15.19 4.68L15.19 4.68L15.19 4.68Q15.51 4.68 15.71 4.87L15.71 4.87L15.71 4.87Q15.90 5.07 15.90 5.39L15.90 5.39L15.90 5.54L15.90 5.54Q16.35 5.10 16.97 4.85L16.97 4.85L16.97 4.85Q17.58 4.61 18.28 4.61L18.28 4.61ZM29.81 11.33L29.81 11.33Q29.96 11.49 29.96 11.75L29.96 11.75L29.96 11.75Q29.96 12.05 29.71 12.26L29.71 12.26L29.71 12.26Q29.50 12.43 29.26 12.43L29.26 12.43L29.26 12.43Q28.95 12.43 28.76 12.18L28.76 12.18L26.10 8.89L25.40 9.51L25.40 11.65L25.40 11.65Q25.40 11.96 25.21 12.14L25.21 12.14L25.21 12.14Q25.02 12.33 24.71 12.33L24.71 12.33L24.71 12.33Q24.40 12.33 24.21 12.14L24.21 12.14L24.21 12.14Q24.02 11.96 24.02 11.65L24.02 11.65L24.02 2.09L24.02 2.09Q24.02 1.78 24.21 1.59L24.21 1.59L24.21 1.59Q24.40 1.40 24.71 1.40L24.71 1.40L24.71 1.40Q25.02 1.40 25.21 1.59L25.21 1.59L25.21 1.59Q25.40 1.78 25.40 2.09L25.40 2.09L25.40 7.78L28.80 4.75L28.80 4.75Q28.98 4.56 29.23 4.56L29.23 4.56L29.23 4.56Q29.53 4.56 29.71 4.79L29.71 4.79L29.71 4.79Q29.89 4.97 29.89 5.22L29.89 5.22L29.89 5.22Q29.89 5.52 29.67 5.70L29.67 5.70L27.09 7.99L29.81 11.33ZM38.30 4.66L38.30 4.66Q38.63 4.66 38.82 4.86L38.82 4.86L38.82 4.86Q39.02 5.05 39.02 5.38L39.02 5.38L39.02 11.62L39.02 11.62Q39.02 11.93 38.82 12.13L38.82 12.13L38.82 12.13Q38.63 12.33 38.30 12.33L38.30 12.33L38.30 12.33Q38.00 12.33 37.79 12.13L37.79 12.13L37.79 12.13Q37.59 11.93 37.59 11.62L37.59 11.62L37.59 11.47L37.59 11.47Q37.14 11.91 36.53 12.16L36.53 12.16L36.53 12.16Q35.91 12.40 35.21 12.40L35.21 12.40L35.21 12.40Q34.24 12.40 33.47 11.98L33.47 11.98L33.47 11.98Q32.70 11.56 32.27 10.76L32.27 10.76L32.27 10.76Q31.84 9.95 31.84 8.82L31.84 8.82L31.84 5.38L31.84 5.38Q31.84 5.07 32.04 4.86L32.04 4.86L32.04 4.86Q32.24 4.66 32.55 4.66L32.55 4.66L32.55 4.66Q32.86 4.66 33.06 4.86L33.06 4.86L33.06 4.86Q33.26 5.07 33.26 5.38L33.26 5.38L33.26 8.82L33.26 8.82Q33.26 9.95 33.87 10.54L33.87 10.54L33.87 10.54Q34.48 11.12 35.49 11.12L35.49 11.12L35.49 11.12Q36.08 11.12 36.56 10.88L36.56 10.88L36.56 10.88Q37.04 10.64 37.32 10.23L37.32 10.23L37.32 10.23Q37.59 9.83 37.59 9.32L37.59 9.32L37.59 5.38L37.59 5.38Q37.59 5.05 37.79 4.86L37.79 4.86L37.79 4.86Q38.00 4.66 38.30 4.66L38.30 4.66ZM45.39 4.62L45.39 4.62Q46.47 4.62 47.35 5.13L47.35 5.13L47.35 5.13Q48.24 5.64 48.75 6.53L48.75 6.53L48.75 6.53Q49.25 7.42 49.25 8.51L49.25 8.51L49.25 8.51Q49.25 9.60 48.78 10.49L48.78 10.49L48.78 10.49Q48.31 11.38 47.49 11.89L47.49 11.89L47.49 11.89Q46.68 12.39 45.67 12.39L45.67 12.39L45.67 12.39Q44.86 12.39 44.16 12.05L44.16 12.05L44.16 12.05Q43.46 11.72 42.97 11.12L42.97 11.12L42.97 14.90L42.97 14.90Q42.97 15.22 42.77 15.41L42.77 15.41L42.77 15.41Q42.57 15.61 42.25 15.61L42.25 15.61L42.25 15.61Q41.94 15.61 41.74 15.41L41.74 15.41L41.74 15.41Q41.54 15.22 41.54 14.90L41.54 14.90L41.54 8.51L41.54 8.51Q41.54 7.42 42.05 6.53L42.05 6.53L42.05 6.53Q42.56 5.64 43.44 5.13L43.44 5.13L43.44 5.13Q44.31 4.62 45.39 4.62L45.39 4.62ZM45.39 11.13L45.39 11.13Q46.09 11.13 46.66 10.79L46.66 10.79L46.66 10.79Q47.22 10.44 47.55 9.85L47.55 9.85L47.55 9.85Q47.88 9.25 47.88 8.51L47.88 8.51L47.88 8.51Q47.88 7.77 47.55 7.17L47.55 7.17L47.55 7.17Q47.22 6.57 46.66 6.22L46.66 6.22L46.66 6.22Q46.09 5.88 45.39 5.88L45.39 5.88L45.39 5.88Q44.69 5.88 44.12 6.22L44.12 6.22L44.12 6.22Q43.55 6.57 43.23 7.17L43.23 7.17L43.23 7.17Q42.91 7.77 42.91 8.51L42.91 8.51L42.91 8.51Q42.91 9.25 43.23 9.85L43.23 9.85L43.23 9.85Q43.55 10.44 44.12 10.79L44.12 10.79L44.12 10.79Q44.69 11.13 45.39 11.13L45.39 11.13Z"></path></g><!----><!----></svg>